<?xml version="1.0" standalone="no"?>
<!DOCTYPE svg PUBLIC "-//W3C//DTD SVG 20010904//EN" "http://www.w3.org/TR/2001/REC-SVG-20010904/DTD/svg10.dtd">
<svg version="1.0" xmlns="http://www.w3.org/2000/svg" width="200.000000pt" height="200.000000pt"
   viewBox="0 0 200.000000 200.000000" preserveAspectRatio="xMidYMid meet">
   <metadata>
      Created by potrace 1.11, written by Peter Selinger 2001-2013
   </metadata>
   <g transform="translate(0.000000,200.000000) scale(0.100000,-0.100000)" fill="#ff1e45" stroke="none">
      <path d="M856 1973 c-97 -14 -199 -45 -277 -85 -60 -30 -75 -48 -56 -68 9 -10
9 -11 0 -6 -6 3 -21 -3 -32 -15 -12 -13 -26 -19 -35 -16 -9 4 -16 2 -16 -4 0
-5 -10 -7 -22 -4 -18 5 -38 -8 -94 -62 -152 -144 -267 -349 -289 -513 -4 -25
-10 -63 -15 -85 -9 -41 -6 -258 4 -306 25 -118 92 -276 154 -363 54 -76 88
-101 113 -85 8 5 10 9 4 10 -5 0 -1 4 10 8 11 5 30 4 43 -2 21 -10 22 -11 5
-21 -10 -5 -27 -10 -38 -11 -80 -1 59 -140 230 -228 62 -32 166 -71 218 -82 9
-2 21 -6 26 -9 11 -7 113 -17 211 -20 262 -9 538 112 734 322 74 78 152 198
183 282 56 148 69 205 46 205 -7 0 -13 3 -13 8 0 4 0 11 0 17 0 5 3 9 8 9 24
-4 32 4 32 32 0 25 -3 30 -16 25 -14 -5 -15 -4 -5 8 41 50 30 234 -25 395 -87
251 -281 472 -508 576 -70 32 -159 68 -163 66 -2 -1 -4 -1 -5 0 -10 3 -49 9
-81 14 -21 3 -50 8 -63 11 -44 11 -183 10 -268 -3z m204 -122 c30 -6 78 -16
105 -22 57 -12 93 -17 118 -18 9 -1 17 -7 17 -15 0 -17 32 -26 67 -20 22 4 24
3 14 -9 -9 -12 -8 -16 5 -21 9 -4 26 -4 38 -1 14 4 17 3 8 -3 -24 -17 11 -34
44 -22 25 9 27 8 12 -4 -28 -21 -21 -29 20 -22 33 5 34 4 12 -5 -24 -11 -24
-11 -5 -19 11 -4 23 -6 27 -3 4 2 5 -4 1 -13 -6 -15 -1 -16 34 -11 23 4 49 10
59 14 12 4 15 3 10 -5 -4 -7 -16 -12 -26 -12 -26 0 -50 -10 -50 -22 0 -6 14
-8 32 -6 27 4 29 3 14 -8 -20 -14 -8 -25 23 -19 28 5 27 -3 -1 -15 l-23 -9 23
-7 c12 -3 22 -13 22 -20 0 -8 7 -14 15 -14 9 0 12 -6 8 -16 -5 -13 1 -15 35
-13 23 2 43 1 46 -2 3 -2 -6 -6 -20 -7 -62 -5 -53 -31 8 -27 36 2 38 2 10 -4
-41 -8 -45 -24 -6 -32 24 -6 25 -7 6 -8 -39 -2 -13 -21 28 -21 21 0 41 -4 44
-9 3 -4 -6 -6 -19 -3 -14 2 -33 1 -42 -3 -10 -4 -75 -9 -145 -10 -100 -2 -125
0 -121 11 2 7 -5 18 -17 24 -13 7 -20 8 -16 2 3 -6 -2 -13 -12 -16 -29 -10
-132 -14 -136 -7 -3 4 10 7 27 7 24 0 32 4 31 17 -1 10 5 17 16 17 26 0 50 10
50 22 0 5 -33 7 -80 4 -44 -2 -82 -1 -84 3 -3 4 18 7 46 6 33 0 53 5 55 13 3
7 -5 13 -19 13 l-23 2 23 4 c22 4 31 22 12 24 -5 1 -14 3 -20 4 -5 1 -14 3
-20 4 -5 0 -10 8 -10 16 0 10 -11 15 -35 15 -25 0 -35 4 -35 15 0 17 -31 32
-83 40 -18 3 -45 10 -62 15 -32 10 -65 13 -105 11 -21 -1 -22 -3 -9 -11 10 -6
34 -12 55 -15 64 -8 94 -16 94 -26 0 -11 -7 -11 -29 0 -10 6 -37 12 -62 15
-24 3 -55 8 -69 11 -44 9 -164 7 -192 -4 -44 -17 -42 -29 4 -25 33 3 27 0 -22
-11 -36 -9 -75 -17 -88 -19 -13 -3 -29 -10 -37 -16 -18 -15 -20 -34 -3 -24 7
4 8 3 4 -4 -4 -7 -16 -12 -27 -12 -26 0 -59 -18 -59 -31 0 -6 10 -8 23 -4 17
5 19 4 7 -4 -8 -6 -25 -11 -37 -11 -26 0 -41 -19 -23 -30 9 -6 6 -9 -11 -12
-13 -1 -24 -10 -24 -18 0 -24 -32 -32 -151 -37 -76 -4 -114 -2 -118 6 -4 6
-18 11 -31 11 -13 0 -27 5 -31 11 -5 8 6 9 35 4 44 -7 52 0 24 20 -16 12 -14
12 10 8 17 -3 27 -1 27 6 0 6 -13 14 -30 18 -16 3 -30 9 -30 14 0 4 15 3 32
-2 42 -12 48 -11 48 1 0 6 -10 15 -23 21 -20 9 -20 9 6 6 38 -6 45 12 7 19
-17 4 -33 11 -36 15 -7 12 9 11 42 -1 36 -14 58 5 23 20 -22 10 -21 10 9 6 24
-4 32 -2 32 9 0 9 -9 15 -22 15 -13 0 -30 5 -38 11 -11 7 -6 9 20 4 19 -4 43
-9 53 -11 20 -6 24 21 5 30 -7 3 -3 3 10 0 18 -4 25 -1 29 15 3 12 13 21 24
21 19 0 27 19 9 21 -5 1 -14 2 -19 3 -30 4 -14 13 21 12 44 -1 65 20 26 27
-17 3 -15 5 10 6 44 1 45 2 65 12 10 6 15 15 11 21 -4 6 -9 6 -13 1 -3 -5 -17
-6 -31 -3 -20 5 -14 8 30 14 67 9 147 34 156 48 5 7 -6 9 -32 5 -31 -5 -34 -5
-16 3 13 6 38 12 55 15 18 3 50 11 72 16 36 10 95 15 210 19 37 1 38 2 15 11
-14 6 -71 9 -127 7 -110 -4 -130 4 -30 12 62 5 113 0 217 -19z m-350 -15 c0
-2 -11 -6 -25 -8 -13 -3 -22 -1 -19 3 5 9 44 13 44 5z m-60 -10 c0 -3 -4 -8
-10 -11 -5 -3 -10 -1 -10 4 0 6 5 11 10 11 6 0 10 -2 10 -4z m-50 -16 c0 -5
-8 -10 -17 -10 -15 0 -16 2 -3 10 19 12 20 12 20 0z m815 0 c-2 -3 -28 -7 -57
-7 l-53 -1 45 7 c61 9 70 9 65 1z m-830 -40 c-3 -5 -18 -10 -33 -9 l-27 1 25
8 c35 11 42 11 35 0z m-92 -17 c-7 -2 -19 -2 -25 0 -7 3 -2 5 12 5 14 0 19 -2
13 -5z m992 -3 c-26 -11 -35 -12 -35 -2 0 4 12 8 28 9 23 1 24 1 7 -7z m55
-20 c-8 -5 -19 -10 -25 -10 -5 0 -3 5 5 10 8 5 20 10 25 10 6 0 3 -5 -5 -10z
m37 -26 c-3 -3 -12 -4 -19 -1 -8 3 -5 6 6 6 11 1 17 -2 13 -5z m-1144 -21 c-7
-2 -19 -2 -25 0 -7 3 -2 5 12 5 14 0 19 -2 13 -5z m1177 -2 c0 -5 -11 -11 -25
-13 -14 -3 -25 -3 -25 -1 0 3 34 19 48 22 1 1 2 -3 2 -8z m-1223 -27 c-3 -3
-12 -4 -19 -1 -8 3 -5 6 6 6 11 1 17 -2 13 -5z m-20 -30 c-3 -3 -12 -4 -19 -1
-8 3 -5 6 6 6 11 1 17 -2 13 -5z m1298 -4 c-3 -5 -12 -10 -18 -10 -7 0 -6 4 3
10 19 12 23 12 15 0z m-1325 -30 c8 -5 11 -10 5 -10 -5 0 -17 5 -25 10 -8 5
-10 10 -5 10 6 0 17 -5 25 -10z m1350 0 c0 -5 -5 -10 -11 -10 -5 0 -7 5 -4 10
3 6 8 10 11 10 2 0 4 -4 4 -10z m-777 -7 c-7 -2 -21 -2 -30 0 -10 3 -4 5 12 5
17 0 24 -2 18 -5z m73 -6 c10 -10 -17 -8 -41 3 -17 8 -16 9 7 7 15 -2 30 -6
34 -10z m204 -7 c0 -5 -7 -7 -15 -4 -8 4 -15 8 -15 10 0 2 7 4 15 4 8 0 15 -4
15 -10z m-71 -16 c10 -9 -35 -3 -49 6 -11 8 -7 9 15 4 17 -4 32 -8 34 -10z
m122 7 c-8 -5 -20 -7 -28 -4 -21 8 -15 13 15 13 20 0 23 -3 13 -9z m-201 -22
c25 -6 55 -13 67 -15 60 -11 136 -32 118 -33 -11 0 -38 4 -60 9 -22 6 -55 13
-74 16 -19 3 -45 10 -59 15 -13 5 -65 10 -115 11 -51 0 -81 4 -67 7 32 9 133
3 190 -10z m690 17 c0 -2 -13 -6 -30 -8 -16 -3 -30 -1 -30 4 0 4 14 8 30 8 17
0 30 -2 30 -4z m-915 -16 c-3 -5 -16 -10 -28 -9 -21 0 -21 1 -2 9 28 12 37 12
30 0z m382 -6 c-3 -3 -12 -4 -19 -1 -8 3 -5 6 6 6 11 1 17 -2 13 -5z m38 -12
c-3 -3 -11 0 -18 7 -9 10 -8 11 6 5 10 -3 15 -9 12 -12z m-479 -1 c-7 -11 -86
-20 -86 -9 0 7 29 14 68 17 13 0 21 -3 18 -8z m1003 6 c-10 -9 -59 -17 -59 -9
0 4 14 9 32 10 18 2 30 1 27 -1z m-856 -23 c-3 -8 10 -16 39 -22 42 -10 41
-10 -27 -10 -38 1 -60 3 -47 5 25 5 29 18 8 26 -13 5 -40 2 -76 -9 -12 -4 -12
-6 -1 -14 8 -4 21 -5 30 -2 14 5 14 3 2 -11 -14 -18 -12 -20 32 -20 9 0 17 -4
17 -8 0 -5 -18 -9 -39 -9 -50 0 -98 -17 -85 -30 6 -6 22 -6 44 0 32 9 178 15
169 6 -2 -2 -43 -6 -91 -9 -48 -3 -92 -8 -98 -12 -16 -10 -12 -28 5 -21 8 3
15 1 15 -4 0 -6 -18 -10 -39 -10 -22 0 -52 -5 -68 -11 -19 -7 -29 -7 -31 0 -2
6 -13 11 -25 11 -27 0 -19 8 16 14 46 8 67 17 67 28 0 6 -13 8 -29 6 -26 -4
-29 -2 -20 13 8 16 5 17 -28 13 l-38 -4 39 12 c22 7 41 19 44 27 3 10 0 12
-12 8 -9 -4 -16 -4 -16 -1 0 9 55 26 125 39 90 16 125 16 118 -1z m135 2 c12
-2 25 -6 30 -11 4 -4 -11 -5 -33 -2 -22 4 -50 7 -63 7 -13 0 -21 4 -17 9 3 5
18 7 33 5 15 -3 37 -7 50 -8z m126 -37 c8 -9 6 -10 -9 -4 -11 4 -33 11 -50 16
-27 8 -26 8 9 4 22 -2 44 -10 50 -16z m113 15 c-3 -3 -12 -4 -19 -1 -8 3 -5 6
6 6 11 1 17 -2 13 -5z m56 -1 c-7 -2 -21 -2 -30 0 -10 3 -4 5 12 5 17 0 24 -2
18 -5z m-323 -13 c0 -5 -4 -10 -10 -10 -5 0 -10 5 -10 10 0 6 5 10 10 10 6 0
10 -4 10 -10z m78 -10 c12 0 22 -4 22 -9 0 -9 -80 5 -90 16 -3 3 6 3 20 0 14
-4 35 -7 48 -7z m137 0 c3 -5 1 -10 -4 -10 -6 0 -11 5 -11 10 0 6 2 10 4 10 3
0 8 -4 11 -10z m42 -6 c-3 -3 -12 -4 -19 -1 -8 3 -5 6 6 6 11 1 17 -2 13 -5z
m-330 -11 c-9 -8 -47 -11 -47 -4 0 5 11 9 25 9 14 0 24 -2 22 -5z m58 -3 c4
-6 -6 -10 -22 -9 -25 0 -26 1 -8 9 11 5 21 9 22 9 1 1 5 -3 8 -9z m195 -11 c9
-5 1 -6 -20 -3 -19 4 -39 11 -45 16 -12 11 41 0 65 -13z m-115 -4 c29 -8 39
-14 25 -14 -14 0 -41 7 -60 14 -46 18 -28 18 35 0z m162 -1 c-3 -3 -12 -4 -19
-1 -8 3 -5 6 6 6 11 1 17 -2 13 -5z m583 -10 c0 -2 -7 -4 -15 -4 -8 0 -15 4
-15 10 0 5 7 7 15 4 8 -4 15 -8 15 -10z m-1615 -4 c3 -5 -1 -10 -10 -10 -9 0
-13 5 -10 10 3 6 8 10 10 10 2 0 7 -4 10 -10z m395 6 c0 -2 -9 -6 -20 -9 -11
-3 -18 -1 -14 4 5 9 34 13 34 5z m696 -5 c-3 -5 -15 -7 -26 -4 -28 7 -25 13 6
13 14 0 23 -4 20 -9z m62 2 c-10 -2 -26 -2 -35 0 -10 3 -2 5 17 5 19 0 27 -2
18 -5z m-343 -13 c19 -8 19 -9 -2 -9 -12 -1 -25 4 -28 9 -7 12 2 12 30 0z
m155 0 c13 -9 13 -10 0 -10 -8 0 -22 5 -30 10 -13 9 -13 10 0 10 8 0 22 -5 30
-10z m-520 -4 c0 -3 -4 -8 -10 -11 -5 -3 -10 -1 -10 4 0 6 5 11 10 11 6 0 10
-2 10 -4z m415 -14 c-3 -3 -11 0 -18 7 -9 10 -8 11 6 5 10 -3 15 -9 12 -12z
m150 8 c3 -5 2 -10 -4 -10 -5 0 -13 5 -16 10 -3 6 -2 10 4 10 5 0 13 -4 16
-10z m-99 -18 c-10 -2 -22 0 -28 6 -6 6 0 7 19 4 21 -5 23 -7 9 -10z m194 8
c0 -5 -2 -10 -4 -10 -3 0 -8 5 -11 10 -3 6 -1 10 4 10 6 0 11 -4 11 -10z
m-445 -10 c3 -5 1 -10 -4 -10 -6 0 -11 5 -11 10 0 6 2 10 4 10 3 0 8 -4 11
-10z m30 0 c3 -5 1 -10 -4 -10 -6 0 -11 5 -11 10 0 6 2 10 4 10 3 0 8 -4 11
-10z m60 -1 c4 -5 -3 -8 -14 -6 -28 4 -34 12 -11 14 11 1 22 -2 25 -8z m105
-16 c3 -3 -6 -3 -20 0 -14 4 -35 7 -47 7 -13 0 -23 4 -23 9 0 9 80 -5 90 -16z
m130 3 c0 -2 -9 -2 -20 1 -11 3 -20 9 -20 15 0 5 9 4 20 -2 11 -6 20 -12 20
-14z m-353 8 c-3 -3 -12 -4 -19 -1 -8 3 -5 6 6 6 11 1 17 -2 13 -5z m1045 -94
c5 -14 11 -34 14 -45 27 -140 31 -180 28 -245 -3 -41 -6 -84 -7 -95 -2 -11 -7
-48 -11 -82 -5 -35 -14 -67 -21 -73 -7 -6 -140 -12 -341 -15 -181 -3 -493 -7
-694 -11 -201 -3 -445 -6 -543 -8 l-177 -1 -11 40 c-6 22 -13 50 -15 63 -2 12
-7 34 -10 50 -19 92 -11 273 17 380 l12 42 56 0 c31 1 180 3 331 5 151 2 462
7 690 10 228 3 415 7 416 8 2 1 60 2 130 2 126 0 127 0 136 -25z m-67 -638
l40 -10 -47 -1 c-41 -1 -48 -4 -48 -22 0 -11 -4 -18 -9 -15 -5 3 -11 -1 -15
-9 -4 -11 3 -14 29 -13 20 1 38 -2 42 -5 3 -4 -11 -7 -33 -7 -21 0 -46 -5 -54
-10 -13 -9 -13 -11 0 -20 12 -8 11 -10 -6 -10 -12 0 -24 -7 -28 -15 -4 -12 3
-13 42 -8 26 3 44 2 40 -2 -5 -5 -23 -9 -42 -11 -44 -2 -76 -13 -76 -25 0 -5
10 -10 23 -10 13 -1 4 -6 -20 -12 -48 -11 -61 -38 -15 -29 15 2 24 2 21 -2 -4
-4 -18 -9 -33 -12 -42 -7 -76 -23 -76 -35 0 -6 7 -8 16 -5 8 3 12 2 9 -4 -3
-6 -17 -10 -29 -10 -13 0 -34 -9 -47 -21 l-24 -20 27 4 c15 2 25 1 23 -4 -3
-4 -27 -10 -55 -14 -27 -4 -54 -13 -61 -21 -10 -13 -8 -14 14 -10 15 3 27 0
27 -5 0 -5 -12 -9 -27 -10 -16 -1 -41 -2 -56 -3 -16 0 -34 -9 -41 -18 -8 -10
-22 -16 -34 -13 -12 2 -28 -3 -36 -10 -8 -8 -24 -14 -37 -13 -37 1 -49 -1 -49
-10 0 -5 33 -15 73 -22 39 -7 67 -15 60 -17 -6 -2 -38 1 -70 7 -120 25 -148
28 -157 19 -6 -6 -4 -9 6 -9 9 0 31 -7 49 -16 22 -10 25 -13 9 -9 -94 24 -184
35 -250 31 -41 -2 -67 -2 -58 1 9 2 15 10 12 17 -4 10 -15 11 -46 4 -22 -5
-43 -6 -46 -3 -3 3 0 5 6 5 7 0 12 5 12 11 0 8 -12 10 -34 6 -29 -5 -34 -3
-29 10 5 14 0 15 -31 10 -32 -5 -36 -4 -26 8 10 12 10 15 -1 16 -21 2 -22 2
-49 -6 -23 -7 -23 -7 -7 9 25 26 22 28 -30 23 -27 -2 -38 -2 -25 0 43 8 17 28
-34 26 -44 -2 -46 -1 -21 8 37 14 34 29 -5 29 -21 0 -28 3 -20 9 18 11 -11 35
-35 27 -10 -3 -25 -1 -33 4 -13 8 -12 10 3 10 20 0 18 24 -1 26 -32 4 -35 6
-17 14 18 7 18 9 -10 20 -16 7 -47 14 -67 17 -21 3 -35 9 -33 14 3 4 20 3 38
-2 40 -11 47 -11 47 0 0 14 -51 30 -107 34 -7 0 -13 4 -13 7 0 4 21 5 48 2 53
-5 50 7 -6 25 -24 8 -28 11 -13 10 13 -1 26 4 28 11 3 6 -3 12 -12 12 -9 0
-15 7 -13 17 2 12 -8 20 -37 29 -39 12 -39 13 -10 14 101 6 267 5 271 -2 3 -5
14 -6 25 -3 11 4 19 2 19 -4 0 -6 -3 -10 -7 -8 -5 1 -9 -3 -11 -8 -1 -6 6 -11
17 -13 13 -2 18 -8 14 -19 -5 -13 0 -15 25 -11 17 2 29 1 26 -4 -3 -4 -12 -8
-20 -8 -8 0 -14 -4 -14 -10 0 -13 41 -13 74 0 14 5 26 7 26 4 0 -3 -13 -10
-30 -15 -36 -13 -40 -33 -5 -27 20 4 23 2 15 -7 -6 -8 -7 -16 -2 -19 10 -6 17
-5 121 24 41 11 84 20 95 19 12 -1 -6 -8 -39 -16 -118 -28 -135 -34 -135 -48
0 -9 6 -12 16 -8 9 3 20 0 24 -7 4 -7 19 -12 33 -12 15 0 25 -6 24 -12 -2 -12
20 -13 76 -2 24 4 37 3 37 -4 0 -5 -11 -10 -25 -10 -14 0 -25 -4 -25 -10 0 -6
29 -10 68 -10 37 0 92 -3 122 -7 53 -6 54 -5 40 12 -14 17 -13 18 3 12 10 -4
36 -10 58 -13 32 -5 39 -4 39 10 0 12 8 15 28 14 45 -5 37 16 -10 25 -23 5
-77 16 -118 26 -41 10 -105 17 -142 16 -38 0 -68 3 -68 8 0 11 167 2 200 -11
14 -5 46 -13 71 -16 26 -3 67 -12 91 -20 30 -8 51 -10 62 -4 19 11 12 30 -8
22 -8 -3 -16 -1 -19 3 -3 5 16 8 44 5 40 -3 49 -1 49 13 0 10 -5 13 -12 9 -7
-4 -8 -3 -4 5 4 7 15 11 24 10 43 -4 53 1 47 21 -5 15 -3 18 8 14 17 -6 50 23
42 37 -4 5 3 9 14 9 24 0 38 19 21 30 -8 5 -6 9 7 14 10 3 27 12 39 19 25 15
220 14 279 -1z m-568 2 c-3 -3 -12 -4 -19 -1 -8 3 -5 6 6 6 11 1 17 -2 13 -5z
m210 -4 c-31 -9 -95 -13 -142 -9 -16 1 6 6 50 9 117 9 123 9 92 0z m-857 -4
c0 -3 -4 -8 -10 -11 -5 -3 -10 -1 -10 4 0 6 5 11 10 11 6 0 10 -2 10 -4z m177
-2 c-3 -3 -12 -4 -19 -1 -8 3 -5 6 6 6 11 1 17 -2 13 -5z m-207 -8 c0 -2 -7
-6 -15 -10 -8 -3 -15 -1 -15 4 0 6 7 10 15 10 8 0 15 -2 15 -4z m138 -1 c-3
-3 -20 -10 -38 -15 -19 -5 -29 -6 -24 -1 12 12 74 27 62 16z m350 -9 c5 -3 24
-8 43 -11 18 -3 36 -8 39 -11 6 -7 -66 4 -106 15 -16 4 -73 8 -126 7 -54 -1
-90 2 -80 6 18 8 216 3 230 -6z m127 4 c16 -7 13 -8 -13 -6 -17 2 -35 6 -39 9
-9 10 28 7 52 -3z m280 -10 c-3 -5 -16 -10 -28 -9 -20 1 -20 2 3 9 14 4 26 8
28 9 2 1 0 -3 -3 -9z m-845 -10 c-8 -5 -19 -10 -25 -10 -5 0 -3 5 5 10 8 5 20
10 25 10 6 0 3 -5 -5 -10z m637 4 c-3 -3 -12 -4 -19 -1 -8 3 -5 6 6 6 11 1 17
-2 13 -5z m33 -4 c0 -5 -4 -10 -10 -10 -5 0 -10 5 -10 10 0 6 5 10 10 10 6 0
10 -4 10 -10z m25 0 c3 -5 1 -10 -4 -10 -6 0 -11 5 -11 10 0 6 2 10 4 10 3 0
8 -4 11 -10z m485 6 c0 -2 -7 -7 -16 -10 -8 -3 -12 -2 -9 4 6 10 25 14 25 6z
m30 0 c0 -3 -4 -8 -10 -11 -5 -3 -10 -1 -10 4 0 6 5 11 10 11 6 0 10 -2 10 -4z
m-1580 -22 c0 -2 -11 -4 -25 -4 -14 0 -25 4 -25 9 0 4 11 6 25 3 14 -2 25 -6
25 -8z m470 6 c-8 -5 -24 -9 -35 -9 -16 1 -16 2 5 9 35 11 48 11 30 0z m210 0
c0 -5 -5 -10 -11 -10 -5 0 -7 5 -4 10 3 6 8 10 11 10 2 0 4 -4 4 -10z m240 -5
c11 -13 10 -14 -4 -9 -9 3 -16 10 -16 15 0 13 6 11 20 -6z m233 8 c-7 -2 -21
-2 -30 0 -10 3 -4 5 12 5 17 0 24 -2 18 -5z m-504 -7 c-2 -2 -28 -7 -58 -10
-29 -4 -59 -9 -65 -13 -7 -4 -8 -3 -1 5 6 5 19 12 30 15 25 6 100 8 94 3z m68
-2 c-3 -3 -12 -4 -19 -1 -8 3 -5 6 6 6 11 1 17 -2 13 -5z m53 -4 c0 -5 -2 -10
-4 -10 -3 0 -8 5 -11 10 -3 6 -1 10 4 10 6 0 11 -4 11 -10z m210 -10 c0 -5 -9
-6 -20 -3 -11 3 -20 9 -20 13 0 5 9 6 20 3 11 -3 20 -9 20 -13z m-585 0 c-27
-12 -43 -12 -25 0 8 5 22 9 30 9 10 0 8 -3 -5 -9z m412 4 c-3 -3 -12 -4 -19
-1 -8 3 -5 6 6 6 11 1 17 -2 13 -5z m-312 -14 c-11 -5 -27 -9 -35 -9 -9 0 -8
4 5 9 11 5 27 9 35 9 9 0 8 -4 -5 -9z m375 0 c0 -5 -2 -10 -4 -10 -3 0 -8 5
-11 10 -3 6 -1 10 4 10 6 0 11 -4 11 -10z m168 3 c-10 -2 -26 -2 -35 0 -10 3
-2 5 17 5 19 0 27 -2 18 -5z m98 0 c-9 -9 -76 -12 -76 -3 0 4 19 7 42 8 23 1
38 -1 34 -5z m47 0 c-7 -2 -19 -2 -25 0 -7 3 -2 5 12 5 14 0 19 -2 13 -5z
m-1208 -13 c3 -5 1 -10 -4 -10 -6 0 -11 5 -11 10 0 6 2 10 4 10 3 0 8 -4 11
-10z m635 0 c0 -5 -5 -10 -11 -10 -5 0 -7 5 -4 10 3 6 8 10 11 10 2 0 4 -4 4
-10z m200 -5 c14 -4 49 -12 78 -18 28 -6 52 -13 52 -17 0 -7 -83 8 -150 27
-19 5 -65 9 -102 9 -38 -1 -68 3 -68 7 0 10 149 3 190 -8z m125 -3 c-3 -3 -11
0 -18 7 -9 10 -8 11 6 5 10 -3 15 -9 12 -12z m-370 -2 c-11 -5 -27 -9 -35 -9
-9 0 -8 4 5 9 11 5 27 9 35 9 9 0 8 -4 -5 -9z m-66 -14 c-9 -10 -89 -24 -83
-15 3 5 15 9 27 9 12 0 29 4 37 10 14 8 29 5 19 -4z m1006 4 c3 -5 1 -10 -4
-10 -6 0 -11 5 -11 10 0 6 2 10 4 10 3 0 8 -4 11 -10z m35 0 c0 -5 -4 -10 -10
-10 -5 0 -10 5 -10 10 0 6 5 10 10 10 6 0 10 -4 10 -10z m-773 -17 c-7 -7
-129 -5 -136 3 -2 2 29 4 69 4 40 0 70 -3 67 -7z m91 -18 c12 -11 -5 -11 -43
2 l-40 13 39 -4 c21 -3 41 -8 44 -11z m181 -1 c9 -8 -55 -2 -74 6 -13 6 -5 7
25 3 25 -3 47 -7 49 -9z m31 -4 c0 -5 -2 -10 -4 -10 -3 0 -8 5 -11 10 -3 6 -1
10 4 10 6 0 11 -4 11 -10z m-124 -10 c8 0 14 -4 14 -9 0 -11 -49 -1 -57 12 -4
7 0 8 11 4 10 -4 24 -7 32 -7z m-349 -6 c-3 -3 -12 -4 -19 -1 -8 3 -5 6 6 6
11 1 17 -2 13 -5z m-90 -20 c-3 -3 -12 -4 -19 -1 -8 3 -5 6 6 6 11 1 17 -2 13
-5z m976 -1 c-7 -2 -19 -2 -25 0 -7 3 -2 5 12 5 14 0 19 -2 13 -5z m-844 -7
c-2 -2 -26 -6 -54 -9 -34 -4 -42 -3 -25 3 25 8 87 13 79 6z m98 -2 c-3 -3 -12
-4 -19 -1 -8 3 -5 6 6 6 11 1 17 -2 13 -5z m-672 -14 c13 -6 15 -9 5 -9 -8 0
-22 4 -30 9 -18 12 -2 12 25 0z m795 -6 l35 -14 -35 6 c-40 7 -76 24 -50 23 8
0 31 -7 50 -15z m600 -4 c0 -5 -5 -10 -11 -10 -5 0 -7 5 -4 10 3 6 8 10 11 10
2 0 4 -4 4 -10z m-770 -9 c0 -6 -9 -9 -20 -8 -11 1 -20 5 -20 9 0 4 9 8 20 8
11 0 20 -4 20 -9z m65 0 c15 -7 11 -9 -17 -9 -21 0 -38 4 -38 9 0 11 28 11 55
0z m45 -5 c0 -3 -4 -8 -10 -11 -5 -3 -10 -1 -10 4 0 6 5 11 10 11 6 0 10 -2
10 -4z m630 -30 c0 -3 -4 -8 -10 -11 -5 -3 -10 -1 -10 4 0 6 5 11 10 11 6 0
10 -2 10 -4z m-45 -16 c-11 -5 -27 -9 -35 -9 -13 -1 -13 0 0 9 8 5 24 9 35 9
l20 0 -20 -9z m-1207 -20 c13 -8 8 -9 -21 -8 -21 1 -40 5 -42 8 -6 10 46 10
63 0z m1182 -20 c-8 -5 -24 -9 -35 -9 -16 1 -16 2 5 9 35 11 48 11 30 0z m-80
-56 c-25 -7 -49 -13 -55 -13 -18 1 59 27 80 28 11 0 0 -7 -25 -15z m-1037 -1
c-7 -2 -19 -2 -25 0 -7 3 -2 5 12 5 14 0 19 -2 13 -5z m62 -33 c-26 -11 -48
-12 -41 -2 2 4 17 8 33 9 24 1 25 0 8 -7z m52 -26 c-8 -8 -48 -13 -43 -6 2 4
14 8 26 9 12 1 20 0 17 -3z m786 -1 c-13 -2 -33 -2 -45 0 -13 2 -3 4 22 4 25
0 35 -2 23 -4z m-733 -23 c-8 -5 -19 -10 -25 -10 -5 0 -3 5 5 10 8 5 20 10 25
10 6 0 3 -5 -5 -10z m705 -9 c-3 -3 -18 -6 -33 -8 -22 -2 -23 -1 -7 6 22 9 48
10 40 2z m-660 -11 c-3 -5 -18 -9 -33 -9 l-27 1 30 8 c17 4 31 8 33 9 2 0 0
-3 -3 -9z m95 -17 c-57 -18 -70 -21 -70 -13 0 9 29 17 65 18 13 0 15 -1 5 -5z
m397 -19 c-3 -3 -12 -4 -19 -1 -8 3 -5 6 6 6 11 1 17 -2 13 -5z" />
      <path d="M992 1777 c-16 -18 -26 -67 -14 -67 5 0 13 8 17 18 6 16 7 16 21 -2
20 -28 28 -13 14 28 -12 38 -21 44 -38 23z" />
      <path d="M849 1773 c-12 -3 -15 -11 -10 -35 4 -17 12 -33 19 -36 8 -2 10 2 5
14 -5 14 -3 16 10 11 9 -4 24 -10 32 -13 8 -3 15 -1 15 5 0 6 -4 11 -9 11 -4
0 -6 11 -3 25 4 21 1 25 -19 24 -13 -1 -31 -3 -40 -6z m38 -19 c-3 -3 -12 -4
-19 -1 -8 3 -5 6 6 6 11 1 17 -2 13 -5z" />
      <path d="M1093 1740 c6 -22 16 -40 22 -40 5 0 20 16 33 35 24 38 16 47 -14 14
l-19 -21 -5 23 c-3 12 -10 24 -16 26 -8 3 -8 -7 -1 -37z" />
      <path d="M737 1744 c-11 -11 -8 -84 3 -84 6 0 10 7 10 16 0 12 6 15 25 10 14
-4 25 -4 25 -1 0 13 -56 65 -63 59z" />
      <path d="M1212 1725 c-18 -39 -15 -50 18 -62 35 -13 39 -2 8 21 -23 16 -23 16
7 10 l30 -6 -25 22 c-24 20 -24 21 -2 10 36 -18 51 -5 15 13 -40 21 -38 22
-51 -8z" />
      <path d="M1325 1659 c-15 -29 -15 -32 2 -45 22 -16 33 -18 33 -4 0 6 -4 10
-10 10 -5 0 -10 9 -10 19 0 11 5 23 10 26 13 8 13 25 0 25 -5 0 -17 -14 -25
-31z" />
      <path d="M601 1670 c0 -8 8 -26 19 -40 15 -20 23 -23 36 -14 26 15 32 40 8 26
-16 -9 -23 -6 -41 16 -15 18 -22 22 -22 12z" />
      <path d="M1578 1460 c-23 -14 -12 -50 17 -50 26 0 42 39 22 52 -15 10 -18 10
-39 -2z" />
      <path d="M368 1440 c-24 -14 -12 -50 17 -50 27 0 40 26 24 46 -13 16 -18 17
-41 4z" />
      <path d="M750 1480 c0 -5 7 -10 16 -10 8 0 12 5 9 10 -3 6 -10 10 -16 10 -5 0
-9 -4 -9 -10z" />
      <path d="M706 1465 c-3 -8 -2 -15 3 -15 5 0 14 7 21 15 10 12 10 15 -3 15 -8
0 -17 -7 -21 -15z" />
      <path d="M695 1429 c-10 -14 -1 -21 19 -13 9 3 13 10 10 15 -7 12 -21 11 -29
-2z" />
      <path d="M1496 1263 c-1 -1 -202 -5 -447 -9 -430 -6 -806 -12 -861 -13 -26 -1
-30 -12 -19 -61 0 -3 72 -5 159 -3 86 2 164 3 172 3 8 0 56 0 105 -1 98 -2
1193 16 1228 20 5 1 7 16 5 34 l-3 32 -168 0 c-93 0 -170 -1 -171 -2z" />
      <path d="M1447 1114 c-2 -3 -2 -32 0 -65 3 -37 1 -59 -5 -55 -5 3 -26 30 -47
61 -33 47 -43 55 -70 55 l-31 0 3 -102 c1 -57 2 -108 2 -114 1 -7 15 -11 31
-10 27 1 30 4 30 34 0 20 -4 31 -10 27 -6 -4 -10 7 -9 27 1 31 2 31 9 8 7 -25
7 -25 11 5 4 30 4 30 47 -32 24 -33 51 -63 60 -65 38 -10 42 0 42 116 l0 113
-29 1 c-16 0 -31 -1 -34 -4z" />
      <path d="M1604 1107 c-45 -25 -62 -58 -59 -115 4 -73 67 -118 143 -101 18 4
41 5 51 2 18 -4 19 1 18 56 -1 34 -5 62 -9 62 -10 2 -35 2 -48 0 -5 0 -10 -14
-10 -31 0 -30 -10 -36 -50 -30 -23 3 -32 15 -36 48 -6 49 41 75 84 48 15 -9
42 10 42 29 0 33 -86 54 -126 32z" />
      <path d="M1195 1102 c-2 -2 -1 -18 2 -35 2 -18 5 -66 6 -107 l2 -75 30 0 30 0
0 108 c0 59 -2 108 -5 108 -14 4 -61 4 -65 1z" />
      <path d="M605 1091 l-30 -6 3 -77 c3 -66 1 -78 -15 -87 -35 -18 -47 2 -49 81
-1 40 -2 77 -3 81 0 5 -16 7 -33 5 -32 -3 -33 -4 -29 -43 2 -22 4 -64 5 -93 2
-30 9 -59 17 -67 32 -31 139 -23 158 13 8 15 17 204 9 201 -2 -1 -16 -4 -33
-8z" />
      <path d="M677 1094 c-2 -2 0 -187 3 -215 0 -8 109 -4 137 5 28 9 63 65 63 100
0 36 -25 83 -53 97 -18 10 -142 21 -150 13z m125 -61 c37 -33 11 -113 -38
-113 -23 0 -24 3 -24 65 0 60 2 65 22 65 12 0 30 -7 40 -17z" />
      <path d="M914 990 l0 -110 33 0 c30 0 39 8 34 34 -1 5 -2 49 -2 98 l0 88 -32
0 -33 0 0 -110z" />
      <path d="M1009 1088 c-6 -35 -3 -43 18 -40 28 4 34 -18 29 -101 l-4 -67 37 0
38 0 -5 53 c-2 28 -8 54 -13 55 -5 2 -9 8 -9 13 0 6 5 7 10 4 7 -4 9 2 4 19
-6 24 -3 26 24 26 25 0 29 3 25 24 -5 23 -8 24 -79 23 -41 -1 -75 -5 -75 -9z" />
      <path d="M242 981 c-18 -58 -33 -110 -32 -114 0 -13 51 -2 60 13 14 22 72 20
91 -4 13 -16 21 -18 38 -10 l22 9 -20 24 c-11 13 -18 28 -15 33 3 5 -8 42 -26
82 -28 64 -34 73 -58 73 -26 0 -29 -6 -60 -106z m88 -23 c0 -4 -9 -8 -21 -8
-15 0 -19 4 -15 16 3 9 6 21 6 27 1 13 30 -22 30 -35z" />
      <path d="M728 811 c-2 -6 -118 -12 -277 -14 -292 -5 -298 -6 -280 -54 9 -24
-80 -24 919 -7 223 3 479 7 570 8 91 1 171 5 177 9 7 5 11 18 9 30 -3 12 -5
25 -5 28 -1 6 -467 3 -693 -4 -49 -2 -88 1 -88 6 0 4 -4 5 -10 2 -16 -10 -300
-14 -300 -4 0 12 -17 12 -22 0z" />
      <path d="M1588 596 c-16 -12 -16 -14 2 -34 21 -22 50 -20 50 4 0 25 -2 29 -11
27 -5 -2 -9 2 -9 7 0 13 -11 12 -32 -4z" />
      <path d="M382 577 c-6 -7 -9 -22 -6 -33 4 -16 12 -20 29 -16 31 5 41 33 19 49
-22 16 -29 16 -42 0z" />
      <path d="M623 354 c-16 -25 -16 -27 8 -44 13 -10 26 -16 29 -13 3 2 -3 10 -12
17 -15 11 -16 15 -3 32 17 22 19 34 5 34 -5 0 -17 -12 -27 -26z" />
      <path d="M1302 363 c35 -73 35 -73 69 -42 l24 20 -27 -5 c-21 -5 -31 -1 -40
14 -12 18 -34 29 -26 13z" />
      <path d="M1217 328 c-21 -7 -27 -15 -22 -27 7 -15 13 -38 14 -53 1 -9 59 11
67 24 4 6 -6 8 -27 4 -30 -5 -32 -5 -11 6 31 16 28 30 -5 23 -26 -5 -26 -5 -5
4 12 6 22 15 22 21 0 5 -1 10 -2 9 -2 0 -16 -5 -31 -11z" />
      <path d="M737 302 c-33 -35 -34 -44 -3 -36 16 4 25 1 29 -10 4 -9 10 -16 14
-16 10 0 4 78 -7 85 -4 2 -19 -8 -33 -23z" />
      <path d="M846 277 c-3 -12 -6 -31 -6 -42 1 -20 1 -20 15 0 15 19 15 19 31 -3
8 -12 20 -20 26 -16 6 4 6 10 -1 17 -7 7 -7 15 1 24 13 17 3 28 -33 37 -22 5
-28 2 -33 -17z m41 -3 c-3 -3 -12 -4 -19 -1 -8 3 -5 6 6 6 11 1 17 -2 13 -5z" />
      <path d="M1126 284 c-3 -9 -4 -20 0 -25 3 -5 1 -9 -5 -9 -6 0 -15 9 -21 20 -6
11 -15 20 -21 20 -6 0 -2 -15 8 -32 26 -44 46 -42 54 5 6 37 -4 51 -15 21z" />
      <path d="M981 248 c-6 -17 -8 -34 -5 -37 4 -3 9 0 11 7 5 14 33 16 33 2 0 -5
6 -10 14 -10 11 0 11 6 -2 35 -20 43 -37 45 -51 3z" />
      <path d="M456 1823 c-11 -11 -6 -23 9 -23 8 0 15 4 15 9 0 13 -16 22 -24 14z" />
   </g>
</svg>